<?xml version="1.0" encoding="utf-8"?>
<!-- Generator: Adobe Illustrator 19.0.1, SVG Export Plug-In . SVG Version: 6.00 Build 0)  -->
<!DOCTYPE svg PUBLIC "-//W3C//DTD SVG 1.1//EN" "http://www.w3.org/Graphics/SVG/1.1/DTD/svg11.dtd">
<svg version="1.1" id="Layer_1" xmlns="http://www.w3.org/2000/svg" xmlns:xlink="http://www.w3.org/1999/xlink" x="0px" y="0px"
	 viewBox="0 0 200 200" enable-background="new 0 0 200 200" xml:space="preserve">
<path fill="#FFFFFF" d="M136.1,53.7l-33.6,41.8h44.8l-78.4,69.7l22.4-55.7H57.7l33.6-55.7H136.1z M170,170.4
	c18.6-18.6,28.8-43.2,28.8-69.5S188.5,50,170,31.5c-18.6-18.6-43.2-28.8-69.5-28.8S49.6,12.9,31.1,31.5C12.5,50,2.3,74.7,2.3,100.9
	s10.2,50.9,28.8,69.5c18.6,18.6,43.2,28.8,69.5,28.8S151.4,189,170,170.4z M185.2,100.9c0,46.7-38,84.7-84.7,84.7
	s-84.7-38-84.7-84.7s38-84.7,84.7-84.7S185.2,54.3,185.2,100.9z"/>
</svg>
