<?xml version="1.0" encoding="utf-8"?>
<!-- Generator: Adobe Illustrator 19.0.1, SVG Export Plug-In . SVG Version: 6.00 Build 0)  -->
<!DOCTYPE svg PUBLIC "-//W3C//DTD SVG 1.1//EN" "http://www.w3.org/Graphics/SVG/1.1/DTD/svg11.dtd">
<svg version="1.1" id="Layer_1" xmlns="http://www.w3.org/2000/svg" xmlns:xlink="http://www.w3.org/1999/xlink" x="0px" y="0px"
	 viewBox="0 0 700 82.4" enable-background="new 0 0 700 82.4" xml:space="preserve">
<path fill="#FFFFFF" d="M271,15.4h12v57h-10.7l-21.4-34.5l-0.2-0.3l0.4,34.8H236v-57h13.8l21.7,35.1l0.2-0.3L271,15.4z M199,40.4v11
	h18.7c-1.7,6-7.3,8.5-13.4,8.5c-9.6,0-15.4-7.9-15.4-17.1c0-8.9,6.2-16,15.3-16c5.3,0,9.8,3.6,12.4,7.6h16.1
	c-3.4-12-15.9-20.3-28.1-20.3c-16.5,0-30.1,11.9-30.1,28.7c0,16.6,13.3,29.4,29.8,29.4c17.2,0,30-12.2,30-29.5c0-1,0-1.3-0.1-2.3
	H199z M155,72.4h15v-57h-15V72.4z M140.3,38.7c-2.4-1.1-9.7-3.9-11.1-6.2c-0.5-0.7-0.5-1.5-0.5-2.4c0-2.7,2.4-3.8,4.9-3.8
	c3.6,0,4.7,3.1,5.2,6.1H153c-0.2-5-0.8-8.2-3.7-11.7c-3.6-4.3-9.7-6.7-15.2-6.7c-9.6,0-19.7,5.9-19.7,16.4c0,8.8,6.5,13,13.7,16
	c1.7,0.7,3.3,1.3,5,2.1c3,1.3,6,2.5,6,6.1c0,3-2.5,5.9-5.5,5.9c-4.2,0-5.8-3.1-5.8-7.1H112v0.7c0,12,9.8,17.8,21.1,17.8
	c11.1,0,20-5.5,20-17.2C153.1,46,147.8,42.1,140.3,38.7z M79,72.4h31v-13H92v-10h17v-12H92v-9h18v-13H79V72.4z M71.2,25.9
	c3.6,5.1,5.2,11.3,5.2,17.5c0,18.5-10.6,29-28.9,29H26v-57h20.4C56.6,15.4,64.8,17.1,71.2,25.9z M62,44c0-9-4.1-15.6-13.7-15.6H41
	v31h7.3C58.1,59.4,62,53.1,62,44z M625.5,15.4l-16.3,42.1l-16.3-42.1H584l22.6,56h4.9l22.6-56H625.5z M570,71.4h8v-56h-8V71.4z
	 M536,23.4h11v48h8v-48h11v-8h-30V23.4z M660.4,21.5c5.5,0,7.6,1,9.6,2.2v-8.4c-2-0.8-4.6-1.7-9.8-1.7c-17.3,0-27.9,14.1-27.9,28.9
	c0,15.3,10.6,29.4,28.4,29.4c3.6,0,7.3-0.9,9.3-1.7v-8.6c-2,1.2-4.8,3.3-9.1,3.3c-11.2,0-18.2-7.6-19.8-17.6H669v-8h-27.9
	C642.6,30.4,648.7,21.5,660.4,21.5z M512.2,21.8c6.6,0,11.6,3.6,15.8,8.6h9.9c-2.4-5-4.7-7.8-8.7-10.6c-4.9-3.5-11.2-5.8-17.2-5.8
	c-16,0-28.9,12.7-28.9,28.8c0,15.9,12.8,30,28.9,30c10.8,0,20.2-5.3,25.5-14.3h-10.1c-3.8,4-9.4,6.7-15.3,6.7
	c-11.7,0-20.7-10.4-20.7-21.8C491.3,31.6,500.3,21.8,512.2,21.8z M389,15.4h-8v56h28v-7h-20V15.4z M421,15.4h-8v56h28v-7h-20V15.4z
	 M376.3,42.9c0,16-13.2,29-29.2,29c-4.6,0-9-1.1-12.9-3c-3.9,1.9-8.3,3-13,3c-16,0-28.9-13.5-28.9-29.4c0-16.1,12.9-28.9,28.9-28.9
	c4.4,0,8.9,1.1,12.9,3c3.9-1.9,8.3-3,12.9-3C363.5,13.6,376.3,26.6,376.3,42.9z M326.7,63.6c-5.4-5.3-8.8-12.7-8.8-20.8
	c0-8.3,3.4-15.7,8.8-20.9c-1.6-0.5-3.3-0.7-5.2-0.7c-11.8,0-20.9,9.8-20.9,21.5c0,11.4,9,21.8,20.7,21.8
	C323.2,64.4,325,64.1,326.7,63.6z M368.1,43.2c0-11.9-8.8-21.7-21-21.7c-1.9,0-3.6,0.6-5.3,1c2.1,2.1,3.8,5,5.4,8h-9.9
	c-1.1-2-2.2-3-3.3-4c-2.5,2.1-4.5,4.2-5.9,7.4c-1.2,2.8-2,5.9-2,9.1s0.8,6.4,2,9.3c1.4,3.2,3.4,6.2,5.8,8.2c1-0.8,2-1.1,2.8-2.1
	h10.1c-1.4,2-3.2,4.1-5.2,6c1.7,0.4,3.6,0,5.5,0c9.3,0,16.4-5.3,19.6-13.9C367.6,48.2,368.1,45.7,368.1,43.2z M440.5,42.5
	c0,15.3,10.4,29.4,28.3,29.4c3.6,0,7.2-0.9,9.2-1.7v-8.6c-2,1.2-4.8,3.3-9.2,3.3c-11.2,0-18.3-7.6-19.9-17.6h28v-8h-28
	c1.5-9,7.6-18,19.4-18c5.5,0,7.6,1,9.6,2.2v-8.4c-2-0.8-4.7-1.7-9.8-1.7C450.8,13.6,440.5,27.7,440.5,42.5z"/>
</svg>
