<?xml version="1.0" standalone="no"?>
<!DOCTYPE svg PUBLIC "-//W3C//DTD SVG 20010904//EN"
 "http://www.w3.org/TR/2001/REC-SVG-20010904/DTD/svg10.dtd">
<svg version="1.0" xmlns="http://www.w3.org/2000/svg"
 width="311.000000pt" height="311.000000pt" viewBox="0 0 311.000000 311.000000"
 preserveAspectRatio="xMidYMid meet">
<metadata>
Created by potrace 1.11, written by Peter Selinger 2001-2013
</metadata>
<g transform="translate(0.000000,311.000000) scale(0.100000,-0.100000)"
fill="#000000" stroke="none">
<path d="M1400 2913 c-327 -49 -582 -174 -800 -393 -176 -175 -296 -381 -354
-605 -33 -131 -43 -211 -43 -348 -1 -371 132 -692 397 -957 192 -193 409 -311
681 -371 150 -34 409 -34 558 0 274 60 486 176 681 371 116 116 185 209 254
346 58 114 91 207 122 349 19 84 26 349 12 445 -31 212 -109 411 -231 589 -67
97 -240 271 -337 338 -148 101 -315 172 -504 215 -68 16 -131 21 -251 23 -88
1 -171 0 -185 -2z m264 -187 c447 -34 845 -342 1000 -774 49 -137 66 -251 62
-412 -2 -80 -6 -156 -10 -170 -9 -37 -17 -79 -18 -87 -1 -5 -13 -45 -29 -90
-97 -286 -310 -532 -578 -668 -70 -35 -216 -88 -276 -100 -143 -29 -312 -33
-445 -11 -368 61 -682 290 -852 623 -87 170 -127 335 -127 530 0 375 170 709
479 939 126 94 325 179 485 209 17 3 68 8 115 11 47 4 87 8 89 10 2 2 7 2 10
0 3 -2 46 -7 95 -10z"/>
<path d="M1319 2030 c-61 -102 -163 -269 -225 -371 -62 -102 -116 -192 -119
-200 -4 -12 32 -14 225 -13 126 0 230 0 230 -1 0 -4 -162 -404 -175 -432 -8
-17 -15 -36 -15 -42 0 -6 -4 -19 -10 -29 -18 -31 -101 -244 -97 -248 2 -2 12
4 23 14 10 9 98 87 194 171 96 85 177 157 180 160 3 3 39 35 80 71 41 36 77
67 80 70 3 3 82 73 175 155 94 82 175 154 181 160 6 5 44 39 84 75 l73 65
-306 5 -306 5 85 105 c47 58 93 114 102 125 9 11 71 88 137 170 66 83 123 152
128 153 32 15 -33 19 -302 18 l-309 0 -113 -186z"/>
</g>
</svg>
